<svg xmlns="http://www.w3.org/2000/svg" viewBox="0 0 400 400"><rect width="400" height="400" fill="#000"/><g fill="none" stroke="white" stroke-width="14" stroke-linecap="round" stroke-linejoin="round"><circle cx="200" cy="200" r="170"/><path d="M200 318V154M200 221l-70-64M200 192l66-62M164 189v-65M235 159v-54M130 157l-38-5M265 130l42 6M200 307l-60 37M200 307l60 37"/></g><g fill="white"><ellipse cx="156" cy="105" rx="22" ry="35" transform="rotate(-25 156 105)"/><ellipse cx="91" cy="142" rx="21" ry="32" transform="rotate(-45 91 142)"/><ellipse cx="243" cy="84" rx="21" ry="29" transform="rotate(30 243 84)"/><ellipse cx="313" cy="131" rx="22" ry="32" transform="rotate(47 313 131)"/><ellipse cx="207" cy="123" rx="20" ry="33"/></g></svg>
